<svg width="59" height="38" viewBox="0 0 59 38" fill="none" xmlns="http://www.w3.org/2000/svg">
<mask id="path-1-inside-1_33_39" fill="white">
<path fill-rule="evenodd" clip-rule="evenodd" d="M5 0C2.23858 0 0 2.23857 0 5V21.9167C0 24.6781 2.23858 26.9167 5 26.9167H26.9525L29.5 38L32.0475 26.9167H54C56.7614 26.9167 59 24.6781 59 21.9167V5C59 2.23858 56.7614 0 54 0H5Z"/>
</mask>
<path fill-rule="evenodd" clip-rule="evenodd" d="M5 0C2.23858 0 0 2.23857 0 5V21.9167C0 24.6781 2.23858 26.9167 5 26.9167H26.9525L29.5 38L32.0475 26.9167H54C56.7614 26.9167 59 24.6781 59 21.9167V5C59 2.23858 56.7614 0 54 0H5Z" fill="#F7F7F7"/>
<path d="M26.9525 26.9167L27.9271 26.6927L27.7487 25.9167H26.9525V26.9167ZM29.5 38L28.5254 38.224L30.4746 38.224L29.5 38ZM32.0475 26.9167V25.9167H31.2513L31.0729 26.6927L32.0475 26.9167ZM1 5C1 2.79086 2.79086 1 5 1V-1C1.68629 -1 -1 1.68629 -1 5H1ZM1 21.9167V5H-1V21.9167H1ZM5 25.9167C2.79086 25.9167 1 24.1258 1 21.9167H-1C-1 25.2304 1.68629 27.9167 5 27.9167V25.9167ZM26.9525 25.9167H5V27.9167H26.9525V25.9167ZM25.9779 27.1407L28.5254 38.224L30.4746 37.776L27.9271 26.6927L25.9779 27.1407ZM30.4746 38.224L33.0221 27.1407L31.0729 26.6927L28.5254 37.776L30.4746 38.224ZM54 25.9167H32.0475V27.9167H54V25.9167ZM58 21.9167C58 24.1258 56.2091 25.9167 54 25.9167V27.9167C57.3137 27.9167 60 25.2304 60 21.9167H58ZM58 5V21.9167H60V5H58ZM54 1C56.2091 1 58 2.79086 58 5H60C60 1.68629 57.3137 -1 54 -1V1ZM5 1H54V-1H5V1Z" fill="#CCCCCC" mask="url(#path-1-inside-1_33_39)"/>
</svg>
